<svg width="678" height="200" viewBox="0 0 678 200" fill="none" xmlns="http://www.w3.org/2000/svg">
<rect width="478" height="200" fill="#212322"/>
<rect x="478" width="200" height="200" fill="#6CC24A"/>
<path d="M50.6363 65.6V137H104.836V123.8H66.3363V106.3H100.936V94.1H66.3363V78.8H104.036V65.6H50.6363Z" fill="white"/>
<path d="M114.38 65.6V137H128.58V65.6H114.38Z" fill="white"/>
<path d="M174.561 105.6H151.461C151.528 104.6 151.728 103.467 152.061 102.2C152.461 100.933 153.095 99.7333 153.961 98.6C154.895 97.4666 156.095 96.5333 157.561 95.8C159.095 95 160.995 94.6 163.261 94.6C166.728 94.6 169.295 95.5333 170.961 97.4C172.695 99.2666 173.895 102 174.561 105.6ZM151.461 114.6H188.761C189.028 110.6 188.695 106.767 187.761 103.1C186.828 99.4333 185.295 96.1666 183.161 93.3C181.095 90.4333 178.428 88.1666 175.161 86.5C171.895 84.7666 168.061 83.9 163.661 83.9C159.728 83.9 156.128 84.6 152.861 86C149.661 87.4 146.895 89.3333 144.561 91.8C142.228 94.2 140.428 97.0666 139.161 100.4C137.895 103.733 137.261 107.333 137.261 111.2C137.261 115.2 137.861 118.867 139.061 122.2C140.328 125.533 142.095 128.4 144.361 130.8C146.628 133.2 149.395 135.067 152.661 136.4C155.928 137.667 159.595 138.3 163.661 138.3C169.528 138.3 174.528 136.967 178.661 134.3C182.795 131.633 185.861 127.2 187.861 121H175.361C174.895 122.6 173.628 124.133 171.561 125.6C169.495 127 167.028 127.7 164.161 127.7C160.161 127.7 157.095 126.667 154.961 124.6C152.828 122.533 151.661 119.2 151.461 114.6Z" fill="white"/>
<path d="M197.583 85.3V137H211.783V107C211.783 104.467 212.15 102.433 212.883 100.9C213.617 99.3 214.483 98.1 215.483 97.3C216.55 96.4333 217.617 95.8666 218.683 95.6C219.817 95.2666 220.717 95.1 221.383 95.1C223.65 95.1 225.35 95.5 226.483 96.3C227.683 97.0333 228.517 98.0333 228.983 99.3C229.517 100.567 229.817 101.967 229.883 103.5C229.95 104.967 229.983 106.467 229.983 108V137H244.183V108.2C244.183 106.6 244.283 105.033 244.483 103.5C244.75 101.9 245.217 100.5 245.883 99.3C246.617 98.0333 247.583 97.0333 248.783 96.3C250.05 95.5 251.683 95.1 253.683 95.1C255.683 95.1 257.25 95.4333 258.383 96.1C259.583 96.7666 260.483 97.6666 261.083 98.8C261.683 99.9333 262.05 101.267 262.183 102.8C262.317 104.333 262.383 105.967 262.383 107.7V137H276.583V102.4C276.583 99.0666 276.117 96.2333 275.183 93.9C274.25 91.5 272.95 89.5666 271.283 88.1C269.617 86.6333 267.617 85.5666 265.283 84.9C262.95 84.2333 260.417 83.9 257.683 83.9C254.083 83.9 250.95 84.7666 248.283 86.5C245.683 88.2333 243.617 90.2333 242.083 92.5C240.683 89.3 238.617 87.0666 235.883 85.8C233.217 84.5333 230.25 83.9 226.983 83.9C223.583 83.9 220.55 84.6333 217.883 86.1C215.283 87.5666 213.05 89.6333 211.183 92.3H210.983V85.3H197.583Z" fill="white"/>
<path d="M322.608 105.6H299.508C299.575 104.6 299.775 103.467 300.108 102.2C300.508 100.933 301.142 99.7333 302.008 98.6C302.942 97.4666 304.142 96.5333 305.608 95.8C307.142 95 309.042 94.6 311.308 94.6C314.775 94.6 317.342 95.5333 319.008 97.4C320.742 99.2666 321.942 102 322.608 105.6ZM299.508 114.6H336.808C337.075 110.6 336.742 106.767 335.808 103.1C334.875 99.4333 333.342 96.1666 331.208 93.3C329.142 90.4333 326.475 88.1666 323.208 86.5C319.942 84.7666 316.108 83.9 311.708 83.9C307.775 83.9 304.175 84.6 300.908 86C297.708 87.4 294.942 89.3333 292.608 91.8C290.275 94.2 288.475 97.0666 287.208 100.4C285.942 103.733 285.308 107.333 285.308 111.2C285.308 115.2 285.908 118.867 287.108 122.2C288.375 125.533 290.142 128.4 292.408 130.8C294.675 133.2 297.442 135.067 300.708 136.4C303.975 137.667 307.642 138.3 311.708 138.3C317.575 138.3 322.575 136.967 326.708 134.3C330.842 131.633 333.908 127.2 335.908 121H323.408C322.942 122.6 321.675 124.133 319.608 125.6C317.542 127 315.075 127.7 312.208 127.7C308.208 127.7 305.142 126.667 303.008 124.6C300.875 122.533 299.708 119.2 299.508 114.6Z" fill="white"/>
<path d="M345.23 85.3V137H359.43V109.9C359.43 104.633 360.297 100.867 362.03 98.6C363.763 96.2666 366.563 95.1 370.43 95.1C373.83 95.1 376.197 96.1666 377.53 98.3C378.863 100.367 379.53 103.533 379.53 107.8V137H393.73V105.2C393.73 102 393.43 99.1 392.83 96.5C392.297 93.8333 391.33 91.6 389.93 89.8C388.53 87.9333 386.597 86.5 384.13 85.5C381.73 84.4333 378.63 83.9 374.83 83.9C371.83 83.9 368.897 84.6 366.03 86C363.163 87.3333 360.83 89.5 359.03 92.5H358.73V85.3H345.23Z" fill="white"/>
<path d="M422.507 85.3V69.8H408.307V85.3H399.707V94.8H408.307V125.3C408.307 127.9 408.741 130 409.607 131.6C410.474 133.2 411.641 134.433 413.107 135.3C414.641 136.167 416.374 136.733 418.307 137C420.307 137.333 422.407 137.5 424.607 137.5C426.007 137.5 427.441 137.467 428.907 137.4C430.374 137.333 431.707 137.2 432.907 137V126C432.241 126.133 431.541 126.233 430.807 126.3C430.074 126.367 429.307 126.4 428.507 126.4C426.107 126.4 424.507 126 423.707 125.2C422.907 124.4 422.507 122.8 422.507 120.4V94.8H432.907V85.3H422.507Z" fill="white"/>
<path d="M539.134 87C539.134 85.4 539.4 84 539.934 82.8C540.534 81.6 541.334 80.6 542.334 79.8C543.334 79 544.467 78.4 545.734 78C547.067 77.5333 548.434 77.3 549.834 77.3C552.034 77.3 553.8 77.6333 555.134 78.3C556.534 78.9666 557.6 79.8 558.334 80.8C559.134 81.8 559.667 82.8666 559.934 84C560.2 85.0666 560.334 86.0666 560.334 87C560.334 90 559.334 92.3 557.334 93.9C555.334 95.4333 552.834 96.2 549.834 96.2C546.967 96.2 544.467 95.4333 542.334 93.9C540.2 92.3 539.134 90 539.134 87ZM526.234 85.7C526.234 89.1666 527.1 92.2 528.834 94.8C530.567 97.4 533.134 99.1666 536.534 100.1V100.3C532.334 101.3 529.067 103.3 526.734 106.3C524.467 109.3 523.334 113.033 523.334 117.5C523.334 121.3 524.067 124.567 525.534 127.3C527.067 130.033 529.067 132.3 531.534 134.1C534.067 135.9 536.9 137.2 540.034 138C543.234 138.867 546.534 139.3 549.934 139.3C553.2 139.3 556.4 138.867 559.534 138C562.667 137.067 565.467 135.7 567.934 133.9C570.4 132.1 572.367 129.833 573.834 127.1C575.367 124.367 576.134 121.133 576.134 117.4C576.134 113 575 109.3 572.734 106.3C570.467 103.233 567.234 101.233 563.034 100.3V100.1C566.434 98.9666 568.967 97.1 570.634 94.5C572.367 91.9 573.234 88.8666 573.234 85.4C573.234 83.6666 572.834 81.7333 572.034 79.6C571.234 77.4 569.9 75.3666 568.034 73.5C566.234 71.5666 563.834 69.9333 560.834 68.6C557.834 67.2666 554.167 66.6 549.834 66.6C546.967 66.6 544.134 67 541.334 67.8C538.534 68.6 536 69.8 533.734 71.4C531.534 73 529.734 75 528.334 77.4C526.934 79.8 526.234 82.5666 526.234 85.7ZM537.534 116.8C537.534 113.2 538.734 110.467 541.134 108.6C543.534 106.667 546.467 105.7 549.934 105.7C551.6 105.7 553.134 105.967 554.534 106.5C556 107.033 557.267 107.8 558.334 108.8C559.467 109.8 560.334 111 560.934 112.4C561.6 113.733 561.934 115.233 561.934 116.9C561.934 118.633 561.634 120.233 561.034 121.7C560.434 123.167 559.567 124.433 558.434 125.5C557.367 126.5 556.1 127.3 554.634 127.9C553.234 128.433 551.667 128.7 549.934 128.7C548.267 128.7 546.667 128.433 545.134 127.9C543.6 127.3 542.267 126.5 541.134 125.5C540.067 124.433 539.2 123.167 538.534 121.7C537.867 120.233 537.534 118.6 537.534 116.8Z" fill="white"/>
<path d="M608.7 85.8V110.1H590.3L608.4 85.8H608.7ZM608.7 121.8V138H622.2V121.8H631.5V110.1H622.2V68H609.5L579.1 108.8V121.8H608.7Z" fill="white"/>
</svg>
